<?xml version="1.0" encoding="UTF-8"?>
<svg version="1.1" xmlns="http://www.w3.org/2000/svg" width="64" height="57">
<path d="M0 0 C21.12 0 42.24 0 64 0 C64 18.81 64 37.62 64 57 C42.88 57 21.76 57 0 57 C0 38.19 0 19.38 0 0 Z " fill="#141018" transform="translate(0,0)"/>
<path d="M0 0 C16.17 0 32.34 0 49 0 C49 7.59 49 15.18 49 23 C45.37 23 41.74 23 38 23 C34.9375 19.3125 34.9375 19.3125 33.61328125 17.11328125 C30.65621654 13.23974128 26.39060899 11.89864172 22 10 C22 15.61 22 21.22 22 27 C27.61 27 33.22 27 39 27 C39 28.32 39 29.64 39 31 C33.39 31 27.78 31 22 31 C22 36.61 22 42.22 22 48 C20.35 48 18.7 48 17 48 C17 35.46 17 22.92 17 10 C8.96258452 14.10635766 8.96258452 14.10635766 4 20 C3.01769502 21.0173873 2.02530403 22.02596117 1 23 C0.67 22.67 0.34 22.34 0 22 C0 14.74 0 7.48 0 0 Z " fill="#121016" transform="translate(13,0)"/>
<path d="M0 0 C0 12.54 0 25.08 0 38 C-6.9181246 35.69395847 -10.76653223 33.17008328 -14.9375 27.25 C-16.65180451 22.00624502 -17.21399692 16.9175893 -15.05078125 11.71875 C-11.92257416 6.42941561 -6.68070586 0 0 0 Z " fill="#6B229E" transform="translate(30,10)"/>
<path d="M0 0 C3.96 0 7.92 0 12 0 C12 10.89 12 21.78 12 33 C8.04 33 4.08 33 0 33 C0 22.11 0 11.22 0 0 Z " fill="#121016" transform="translate(0,24)"/>
<path d="M0 0 C3.96 0 7.92 0 12 0 C12 7.59 12 15.18 12 23 C8.04 23 4.08 23 0 23 C0 15.41 0 7.82 0 0 Z " fill="#121015" transform="translate(0,0)"/>
<path d="M0 0 C1.65 0 3.3 0 5 0 C5 5.61 5 11.22 5 17 C10.61 17 16.22 17 22 17 C22 18.32 22 19.64 22 21 C16.39 21 10.78 21 5 21 C5 26.61 5 32.22 5 38 C3.35 38 1.7 38 0 38 C0 25.46 0 12.92 0 0 Z " fill="#000000" transform="translate(30,10)"/>
<path d="M0 0 C5.61 0 11.22 0 17 0 C15.17786588 7.07416775 13.15767675 10.96109374 7 15 C4.2949595 16.54202885 3.18948047 17 0 17 C0 11.39 0 5.78 0 0 Z " fill="#892EC6" transform="translate(35,31)"/>
<path d="M0 0 C6.66115576 1.63966911 10.21100245 3.57803756 14.6875 8.76953125 C16 11 16 11 17 17 C11.39 17 5.78 17 0 17 C0 11.39 0 5.78 0 0 Z " fill="#892EC7" transform="translate(35,10)"/>
<path d="M0 0 C0.33 0 0.66 0 1 0 C1.02505615 0.65597168 1.0501123 1.31194336 1.07592773 1.98779297 C1.1917326 4.95040183 1.31452886 7.91268031 1.4375 10.875 C1.47681641 11.90753906 1.51613281 12.94007812 1.55664062 14.00390625 C1.61948242 15.48310547 1.61948242 15.48310547 1.68359375 16.9921875 C1.72025146 17.90339355 1.75690918 18.81459961 1.79467773 19.75341797 C1.86577065 22.03483481 1.86577065 22.03483481 3 24 C2.34 24 1.68 24 1 24 C1 34.89 1 45.78 1 57 C0.67 57 0.34 57 0 57 C0 46.11 0 35.22 0 24 C-3.96 24 -7.92 24 -12 24 C-12 23.67 -12 23.34 -12 23 C-8.04 23 -4.08 23 0 23 C0 15.41 0 7.82 0 0 Z " fill="#1A171D" transform="translate(12,0)"/>
</svg>
